<svg width="25" height="15" viewBox="0 0 25 15" fill="none" xmlns="http://www.w3.org/2000/svg">
<path fill-rule="evenodd" clip-rule="evenodd" d="M23.949 1.87427C24.115 1.32827 23.949 0.92627 23.154 0.92627H20.529C19.861 0.92627 19.553 1.27327 19.386 1.65627C19.386 1.65627 18.051 4.85227 16.16 6.92827C15.548 7.53027 15.27 7.72127 14.936 7.72127C14.769 7.72127 14.518 7.53027 14.518 6.98327V1.87427C14.518 1.21827 14.334 0.92627 13.778 0.92627H9.65002C9.23302 0.92627 8.98202 1.23027 8.98202 1.51927C8.98202 2.14027 9.92802 2.28427 10.025 4.03227V7.83027C10.025 8.66327 9.87202 8.81427 9.53802 8.81427C8.64802 8.81427 6.48302 5.60327 5.19802 1.92927C4.94902 1.21427 4.69702 0.92627 4.02602 0.92627H1.39902C0.649023 0.92627 0.499023 1.27327 0.499023 1.65627C0.499023 2.33827 1.38902 5.72627 4.64402 10.2073C6.81402 13.2673 9.86902 14.9263 12.652 14.9263C14.321 14.9263 14.527 14.5583 14.527 13.9233V11.6103C14.527 10.8733 14.685 10.7263 15.214 10.7263C15.604 10.7263 16.271 10.9183 17.829 12.3933C19.609 14.1423 19.902 14.9263 20.904 14.9263H23.529C24.279 14.9263 24.655 14.5583 24.439 13.8303C24.201 13.1063 23.351 12.0553 22.224 10.8083C21.612 10.0983 20.694 9.33327 20.415 8.95027C20.026 8.45927 20.137 8.24027 20.415 7.80327C20.415 7.80327 23.615 3.37727 23.948 1.87427H23.949Z" fill="white"/>
</svg>
